<mxfile host="app.diagrams.net" modified="2021-12-22T10:52:13.578Z" agent="5.0 (Windows NT 10.0; Win64; x64) AppleWebKit/537.36 (KHTML, like Gecko) Chrome/96.0.4664.110 Safari/537.36" etag="cWV3Euhwmu8LQHyggAqw" version="16.0.3" type="github">
  <diagram id="C5RBs43oDa-KdzZeNtuy" name="Page-1">
    <mxGraphModel dx="1878" dy="1929" grid="1" gridSize="10" guides="1" tooltips="1" connect="1" arrows="1" fold="1" page="1" pageScale="1" pageWidth="827" pageHeight="1169" math="0" shadow="0">
      <root>
        <mxCell id="WIyWlLk6GJQsqaUBKTNV-0" />
        <mxCell id="WIyWlLk6GJQsqaUBKTNV-1" parent="WIyWlLk6GJQsqaUBKTNV-0" />
        <mxCell id="WIyWlLk6GJQsqaUBKTNV-2" value="" style="rounded=0;html=1;jettySize=auto;orthogonalLoop=1;fontSize=11;endArrow=block;endFill=0;endSize=8;strokeWidth=1;shadow=0;labelBackgroundColor=none;edgeStyle=orthogonalEdgeStyle;" parent="WIyWlLk6GJQsqaUBKTNV-1" target="WIyWlLk6GJQsqaUBKTNV-6" edge="1">
          <mxGeometry relative="1" as="geometry">
            <mxPoint x="220" y="119.99999999999989" as="sourcePoint" />
          </mxGeometry>
        </mxCell>
        <mxCell id="WIyWlLk6GJQsqaUBKTNV-4" value="Yes" style="rounded=0;html=1;jettySize=auto;orthogonalLoop=1;fontSize=11;endArrow=block;endFill=0;endSize=8;strokeWidth=1;shadow=0;labelBackgroundColor=none;edgeStyle=orthogonalEdgeStyle;" parent="WIyWlLk6GJQsqaUBKTNV-1" source="WIyWlLk6GJQsqaUBKTNV-6" edge="1">
          <mxGeometry x="-0.5" y="-20" relative="1" as="geometry">
            <mxPoint as="offset" />
            <mxPoint x="220" y="290" as="targetPoint" />
          </mxGeometry>
        </mxCell>
        <mxCell id="WIyWlLk6GJQsqaUBKTNV-5" value="No" style="edgeStyle=orthogonalEdgeStyle;rounded=0;html=1;jettySize=auto;orthogonalLoop=1;fontSize=11;endArrow=block;endFill=0;endSize=8;strokeWidth=1;shadow=0;labelBackgroundColor=none;" parent="WIyWlLk6GJQsqaUBKTNV-1" source="WIyWlLk6GJQsqaUBKTNV-6" edge="1">
          <mxGeometry y="10" relative="1" as="geometry">
            <mxPoint as="offset" />
            <mxPoint x="320" y="209.9999999999999" as="targetPoint" />
          </mxGeometry>
        </mxCell>
        <mxCell id="WIyWlLk6GJQsqaUBKTNV-6" value="All data are valid?" style="rhombus;whiteSpace=wrap;html=1;shadow=0;fontFamily=Helvetica;fontSize=12;align=center;strokeWidth=1;spacing=6;spacingTop=-4;" parent="WIyWlLk6GJQsqaUBKTNV-1" vertex="1">
          <mxGeometry x="170" y="170" width="100" height="80" as="geometry" />
        </mxCell>
        <mxCell id="piDOjjm9LUJ-mpqsUkBe-8" value="" style="edgeStyle=orthogonalEdgeStyle;rounded=0;orthogonalLoop=1;jettySize=auto;html=1;" edge="1" parent="WIyWlLk6GJQsqaUBKTNV-1" source="piDOjjm9LUJ-mpqsUkBe-2" target="piDOjjm9LUJ-mpqsUkBe-7">
          <mxGeometry relative="1" as="geometry" />
        </mxCell>
        <mxCell id="piDOjjm9LUJ-mpqsUkBe-2" value="&lt;span&gt;Warning messages about validation&lt;/span&gt;" style="shape=parallelogram;perimeter=parallelogramPerimeter;whiteSpace=wrap;html=1;fixedSize=1;" vertex="1" parent="WIyWlLk6GJQsqaUBKTNV-1">
          <mxGeometry x="315" y="180" width="130" height="60" as="geometry" />
        </mxCell>
        <mxCell id="piDOjjm9LUJ-mpqsUkBe-3" value="&lt;span&gt;Modbus registers&lt;br&gt;(data input)&lt;br&gt;&lt;/span&gt;" style="shape=parallelogram;perimeter=parallelogramPerimeter;whiteSpace=wrap;html=1;fixedSize=1;" vertex="1" parent="WIyWlLk6GJQsqaUBKTNV-1">
          <mxGeometry x="160" y="60" width="130" height="60" as="geometry" />
        </mxCell>
        <mxCell id="piDOjjm9LUJ-mpqsUkBe-5" style="edgeStyle=orthogonalEdgeStyle;rounded=0;orthogonalLoop=1;jettySize=auto;html=1;entryX=0.5;entryY=0;entryDx=0;entryDy=0;" edge="1" parent="WIyWlLk6GJQsqaUBKTNV-1" source="piDOjjm9LUJ-mpqsUkBe-4" target="piDOjjm9LUJ-mpqsUkBe-3">
          <mxGeometry relative="1" as="geometry">
            <Array as="points">
              <mxPoint x="225" y="30" />
              <mxPoint x="225" y="30" />
            </Array>
          </mxGeometry>
        </mxCell>
        <mxCell id="piDOjjm9LUJ-mpqsUkBe-4" value="START" style="ellipse;whiteSpace=wrap;html=1;" vertex="1" parent="WIyWlLk6GJQsqaUBKTNV-1">
          <mxGeometry x="165" y="-10" width="120" height="40" as="geometry" />
        </mxCell>
        <mxCell id="piDOjjm9LUJ-mpqsUkBe-9" style="edgeStyle=orthogonalEdgeStyle;rounded=0;orthogonalLoop=1;jettySize=auto;html=1;" edge="1" parent="WIyWlLk6GJQsqaUBKTNV-1" source="piDOjjm9LUJ-mpqsUkBe-7">
          <mxGeometry relative="1" as="geometry">
            <mxPoint x="220" y="270" as="targetPoint" />
            <Array as="points">
              <mxPoint x="545" y="270" />
            </Array>
          </mxGeometry>
        </mxCell>
        <mxCell id="piDOjjm9LUJ-mpqsUkBe-13" value="Yes" style="edgeLabel;html=1;align=center;verticalAlign=middle;resizable=0;points=[];" vertex="1" connectable="0" parent="piDOjjm9LUJ-mpqsUkBe-9">
          <mxGeometry x="-0.6687" y="-2" relative="1" as="geometry">
            <mxPoint x="22" y="-8" as="offset" />
          </mxGeometry>
        </mxCell>
        <mxCell id="piDOjjm9LUJ-mpqsUkBe-12" value="No" style="edgeStyle=orthogonalEdgeStyle;rounded=0;orthogonalLoop=1;jettySize=auto;html=1;" edge="1" parent="WIyWlLk6GJQsqaUBKTNV-1" source="piDOjjm9LUJ-mpqsUkBe-7" target="piDOjjm9LUJ-mpqsUkBe-11">
          <mxGeometry x="-0.2" y="10" relative="1" as="geometry">
            <mxPoint as="offset" />
          </mxGeometry>
        </mxCell>
        <mxCell id="piDOjjm9LUJ-mpqsUkBe-7" value="Validation accepted?" style="rhombus;whiteSpace=wrap;html=1;" vertex="1" parent="WIyWlLk6GJQsqaUBKTNV-1">
          <mxGeometry x="500" y="170" width="90" height="80" as="geometry" />
        </mxCell>
        <mxCell id="piDOjjm9LUJ-mpqsUkBe-11" value="STOP" style="ellipse;whiteSpace=wrap;html=1;" vertex="1" parent="WIyWlLk6GJQsqaUBKTNV-1">
          <mxGeometry x="640" y="185" width="90" height="50" as="geometry" />
        </mxCell>
        <mxCell id="piDOjjm9LUJ-mpqsUkBe-15" style="edgeStyle=orthogonalEdgeStyle;rounded=0;orthogonalLoop=1;jettySize=auto;html=1;entryX=0.5;entryY=0;entryDx=0;entryDy=0;" edge="1" parent="WIyWlLk6GJQsqaUBKTNV-1" source="piDOjjm9LUJ-mpqsUkBe-14" target="piDOjjm9LUJ-mpqsUkBe-7">
          <mxGeometry relative="1" as="geometry" />
        </mxCell>
        <mxCell id="piDOjjm9LUJ-mpqsUkBe-14" value="&lt;span&gt;accept / decline &lt;br&gt;user input&lt;br&gt;&lt;/span&gt;" style="shape=parallelogram;perimeter=parallelogramPerimeter;whiteSpace=wrap;html=1;fixedSize=1;" vertex="1" parent="WIyWlLk6GJQsqaUBKTNV-1">
          <mxGeometry x="480" y="70" width="130" height="60" as="geometry" />
        </mxCell>
        <mxCell id="piDOjjm9LUJ-mpqsUkBe-18" value="" style="edgeStyle=orthogonalEdgeStyle;rounded=0;orthogonalLoop=1;jettySize=auto;html=1;" edge="1" parent="WIyWlLk6GJQsqaUBKTNV-1" source="piDOjjm9LUJ-mpqsUkBe-16" target="piDOjjm9LUJ-mpqsUkBe-17">
          <mxGeometry relative="1" as="geometry" />
        </mxCell>
        <mxCell id="piDOjjm9LUJ-mpqsUkBe-16" value="Check acceptance criteria" style="rounded=0;whiteSpace=wrap;html=1;" vertex="1" parent="WIyWlLk6GJQsqaUBKTNV-1">
          <mxGeometry x="160" y="360" width="120" height="40" as="geometry" />
        </mxCell>
        <mxCell id="piDOjjm9LUJ-mpqsUkBe-26" value="" style="edgeStyle=orthogonalEdgeStyle;rounded=0;orthogonalLoop=1;jettySize=auto;html=1;" edge="1" parent="WIyWlLk6GJQsqaUBKTNV-1" source="piDOjjm9LUJ-mpqsUkBe-17" target="piDOjjm9LUJ-mpqsUkBe-25">
          <mxGeometry relative="1" as="geometry" />
        </mxCell>
        <mxCell id="piDOjjm9LUJ-mpqsUkBe-17" value="Generate plots" style="whiteSpace=wrap;html=1;rounded=0;" vertex="1" parent="WIyWlLk6GJQsqaUBKTNV-1">
          <mxGeometry x="160" y="420" width="120" height="40" as="geometry" />
        </mxCell>
        <mxCell id="piDOjjm9LUJ-mpqsUkBe-24" style="edgeStyle=orthogonalEdgeStyle;rounded=0;orthogonalLoop=1;jettySize=auto;html=1;entryX=0.5;entryY=0;entryDx=0;entryDy=0;" edge="1" parent="WIyWlLk6GJQsqaUBKTNV-1" source="piDOjjm9LUJ-mpqsUkBe-23" target="piDOjjm9LUJ-mpqsUkBe-16">
          <mxGeometry relative="1" as="geometry">
            <Array as="points">
              <mxPoint x="220" y="340" />
              <mxPoint x="220" y="340" />
            </Array>
          </mxGeometry>
        </mxCell>
        <mxCell id="piDOjjm9LUJ-mpqsUkBe-23" value="Select sections to generate report" style="shape=parallelogram;perimeter=parallelogramPerimeter;whiteSpace=wrap;html=1;fixedSize=1;" vertex="1" parent="WIyWlLk6GJQsqaUBKTNV-1">
          <mxGeometry x="160" y="290" width="130" height="40" as="geometry" />
        </mxCell>
        <mxCell id="piDOjjm9LUJ-mpqsUkBe-29" value="" style="edgeStyle=orthogonalEdgeStyle;rounded=0;orthogonalLoop=1;jettySize=auto;html=1;" edge="1" parent="WIyWlLk6GJQsqaUBKTNV-1" source="piDOjjm9LUJ-mpqsUkBe-25" target="piDOjjm9LUJ-mpqsUkBe-28">
          <mxGeometry relative="1" as="geometry" />
        </mxCell>
        <mxCell id="piDOjjm9LUJ-mpqsUkBe-25" value="Generate report based on template" style="whiteSpace=wrap;html=1;rounded=0;" vertex="1" parent="WIyWlLk6GJQsqaUBKTNV-1">
          <mxGeometry x="160" y="480" width="120" height="60" as="geometry" />
        </mxCell>
        <mxCell id="piDOjjm9LUJ-mpqsUkBe-28" value="STOP" style="ellipse;whiteSpace=wrap;html=1;rounded=0;" vertex="1" parent="WIyWlLk6GJQsqaUBKTNV-1">
          <mxGeometry x="160" y="570" width="120" height="40" as="geometry" />
        </mxCell>
      </root>
    </mxGraphModel>
  </diagram>
</mxfile>
